<?xml version="1.0" encoding="utf-8"?>
<!-- Generator: Adobe Illustrator 27.8.1, SVG Export Plug-In . SVG Version: 6.00 Build 0)  -->
<svg version="1.1" id="Layer_1" xmlns="http://www.w3.org/2000/svg" xmlns:xlink="http://www.w3.org/1999/xlink" x="0px" y="0px"
	 viewBox="0 0 376.11 126" style="enable-background:new 0 0 376.11 126;" xml:space="preserve">
<style type="text/css">
	.st0{fill:#F99F1C;}
	.st1{fill:#161B21;}
	.st2{fill:#FFFFFF;}
	.st3{fill:#1B0036;}
</style>
<rect x="-173.01" y="-214.79" class="st0" width="613.86" height="47.43"/>
<rect x="-173.01" y="-227.65" class="st1" width="613.86" height="8.04"/>
<rect x="-173.01" y="-403.97" class="st0" width="613.86" height="8.04"/>
<rect x="-173.01" y="-450.57" class="st1" width="613.86" height="42.06"/>
<g>
	<line class="st2" x1="259.73" y1="-305.36" x2="259.73" y2="-305.36"/>
</g>
<g>
	<path class="st1" d="M116.8-353.93l-12.63,68.83h-5v0.01H48.09l-10.21-22.68l-6.68-0.03l-4.17,22.71H3.11l4.07-22.84l3.02-16.93
		h48.68c2.21,0,4.2-0.89,5.64-2.34c1.45-1.44,2.34-3.43,2.34-5.64c0-2.34-1.89-4.23-4.23-4.23H12.41l2.97-16.86h53.08
		c10.94,0,19.52,9.7,17.94,20.51c0,0,0,0,0,0.01c-0.01,0.25-0.02,0.51-0.04,0.77c-0.12,1.73-0.4,3.38-0.82,4.93
		c0,0.01,0,0.01,0,0.01c-2.04,11.37-12.75,19.74-24.32,20.04l1.8,4.73l20.39,0.08l9.11-51.08H116.8z"/>
</g>
<g>
	<path class="st3" d="M61.09-333.43"/>
</g>
<g>
	<polygon class="st0" points="266.52,-285.1 115.38,-285.05 108.01,-285.07 111.03,-302.89 158.58,-333.43 116.8,-333.64 
		120.37,-353.93 198.01,-353.93 194.21,-333.25 139.52,-302.89 236.59,-302.89 228.65,-330.79 214.94,-310.64 188.58,-310.64 
		218.37,-353.93 243.65,-353.93 259.73,-305.36 	"/>
</g>
<g>
	<path class="st1" d="M0-270.74v-1.22c1.04,0.45,1.9,0.68,2.58,0.68c0.51,0,0.93-0.13,1.24-0.38c0.32-0.26,0.47-0.59,0.47-1
		c0-0.34-0.1-0.63-0.31-0.87s-0.59-0.5-1.14-0.8l-0.64-0.35c-0.79-0.42-1.35-0.82-1.67-1.19s-0.48-0.81-0.48-1.3
		c0-0.67,0.26-1.22,0.78-1.66s1.18-0.65,1.98-0.65c0.71,0,1.47,0.11,2.26,0.33v1.13c-0.98-0.36-1.7-0.54-2.18-0.54
		c-0.46,0-0.83,0.11-1.13,0.34c-0.3,0.23-0.44,0.51-0.44,0.86c0,0.29,0.11,0.54,0.33,0.77c0.22,0.22,0.61,0.49,1.19,0.8l0.66,0.35
		c0.8,0.43,1.36,0.83,1.68,1.21c0.32,0.38,0.48,0.83,0.48,1.37c0,0.75-0.3,1.36-0.89,1.82s-1.38,0.69-2.36,0.69
		C1.77-270.36,0.97-270.49,0-270.74z"/>
	<path class="st1" d="M14.6-270.58c-0.38,0.1-0.71,0.15-0.99,0.15c-0.63,0-1.11-0.17-1.46-0.5s-0.53-0.8-0.53-1.4v-3.74h-0.85v-0.87
		h0.85v-1.15l1.23-0.11v1.27h1.78v0.87h-1.78v3.53c0,0.83,0.38,1.25,1.15,1.25c0.16,0,0.36-0.03,0.59-0.08V-270.58z"/>
	<path class="st1" d="M20.81-268.26l1.11-2.32l-2.63-6.36h1.34l1.94,4.79l2.08-4.79h1.17l-3.71,8.68H20.81z"/>
	<path class="st1" d="M31.17-270.58v-9.25h1.23v9.25H31.17z"/>
	<path class="st1" d="M43.92-270.78c-0.83,0.23-1.53,0.35-2.12,0.35c-1.01,0-1.82-0.31-2.45-0.93c-0.63-0.62-0.95-1.43-0.95-2.42
		c0-0.96,0.28-1.75,0.84-2.37c0.56-0.62,1.27-0.92,2.14-0.92c0.82,0,1.46,0.27,1.91,0.82s0.67,1.33,0.67,2.33l-0.01,0.35h-4.29
		c0.18,1.51,0.97,2.26,2.37,2.26c0.51,0,1.14-0.13,1.89-0.39V-270.78z M39.71-274.44h3c0-1.18-0.47-1.78-1.41-1.78
		C40.35-276.22,39.82-275.62,39.71-274.44z"/>
	<path class="st1" d="M54.98-270.58l-1.95-6.36h1.2l1.49,4.93l1.61-4.93h1.23l1.41,4.91l1.71-4.91h1.06l-2.22,6.36H59.3l-1.45-4.93
		l-1.63,4.93H54.98z"/>
	<path class="st1" d="M68.12-278.1v-1.15h1.23v1.15H68.12z M68.12-270.58v-6.36h1.23v6.36H68.12z"/>
	<path class="st1" d="M78.91-270.58c-0.38,0.1-0.71,0.15-0.99,0.15c-0.63,0-1.11-0.17-1.46-0.5s-0.53-0.8-0.53-1.4v-3.74h-0.85
		v-0.87h0.85v-1.15l1.23-0.11v1.27h1.78v0.87h-1.78v3.53c0,0.83,0.38,1.25,1.15,1.25c0.16,0,0.36-0.03,0.59-0.08V-270.58z"/>
	<path class="st1" d="M84.74-270.58v-9.25h1.23v4.08c0.65-0.89,1.45-1.34,2.39-1.34c0.59,0,1.06,0.17,1.41,0.52
		c0.35,0.35,0.52,0.82,0.52,1.41v4.57h-1.23v-4.2c0-0.47-0.07-0.81-0.22-1.01c-0.15-0.2-0.39-0.3-0.74-0.3
		c-0.75,0-1.47,0.46-2.13,1.39v4.12H84.74z"/>
	<path class="st1" d="M108.37-271.39c-0.74,0.64-1.45,0.96-2.13,0.96c-0.56,0-1.03-0.17-1.4-0.5c-0.37-0.33-0.56-0.75-0.56-1.25
		c0-0.7,0.31-1.23,0.94-1.6c0.62-0.37,1.52-0.56,2.69-0.56h0.29v-0.77c0-0.74-0.41-1.11-1.23-1.11c-0.64,0-1.34,0.19-2.09,0.56
		v-0.96c0.83-0.32,1.61-0.47,2.35-0.47c0.76,0,1.31,0.16,1.67,0.48c0.36,0.32,0.54,0.82,0.54,1.49v2.88c0,0.66,0.22,0.99,0.65,0.99
		c0.05,0,0.13-0.01,0.24-0.02l0.09,0.64c-0.28,0.13-0.59,0.19-0.93,0.19C108.89-270.43,108.53-270.75,108.37-271.39z M108.19-272.01
		v-1.65l-0.39-0.01c-0.68,0-1.24,0.12-1.66,0.36c-0.42,0.24-0.63,0.55-0.63,0.95c0,0.28,0.1,0.51,0.31,0.7
		c0.21,0.19,0.46,0.29,0.76,0.29C107.1-271.38,107.63-271.59,108.19-272.01z"/>
	<path class="st1" d="M120.05-270.58v-6.36h1.23v1.2c0.65-0.89,1.45-1.34,2.39-1.34c0.59,0,1.06,0.17,1.41,0.52
		c0.35,0.35,0.52,0.82,0.52,1.41v4.57h-1.23v-4.2c0-0.47-0.07-0.81-0.22-1.01c-0.15-0.2-0.39-0.3-0.74-0.3
		c-0.75,0-1.47,0.46-2.13,1.39v4.12H120.05z"/>
	<path class="st1" d="M137.05-270.78c-0.83,0.23-1.53,0.35-2.12,0.35c-1.01,0-1.82-0.31-2.45-0.93c-0.63-0.62-0.95-1.43-0.95-2.42
		c0-0.96,0.28-1.75,0.84-2.37c0.56-0.62,1.27-0.92,2.14-0.92c0.82,0,1.46,0.27,1.91,0.82s0.67,1.33,0.67,2.33l-0.01,0.35h-4.29
		c0.18,1.51,0.97,2.26,2.37,2.26c0.51,0,1.14-0.13,1.89-0.39V-270.78z M132.84-274.44h3c0-1.18-0.47-1.78-1.42-1.78
		C133.48-276.22,132.95-275.62,132.84-274.44z"/>
	<path class="st1" d="M144.05-270.58l-1.95-6.36h1.2l1.49,4.93l1.61-4.93h1.23l1.41,4.91l1.71-4.91h1.06l-2.22,6.36h-1.23
		l-1.45-4.93l-1.63,4.93H144.05z"/>
	<path class="st1" d="M170.29-270.78c-0.83,0.23-1.53,0.35-2.12,0.35c-1.01,0-1.82-0.31-2.45-0.93c-0.63-0.62-0.95-1.43-0.95-2.42
		c0-0.96,0.28-1.75,0.84-2.37c0.56-0.62,1.27-0.92,2.14-0.92c0.82,0,1.46,0.27,1.91,0.82s0.67,1.33,0.67,2.33l-0.01,0.35h-4.29
		c0.18,1.51,0.97,2.26,2.37,2.26c0.51,0,1.14-0.13,1.89-0.39V-270.78z M166.09-274.44h3c0-1.18-0.47-1.78-1.42-1.78
		C166.72-276.22,166.2-275.62,166.09-274.44z"/>
	<path class="st1" d="M175.83-270.58l2.59-3.28l-2.51-3.08h1.46l1.98,2.45l1.79-2.45h1.21l-2.35,3.23l2.56,3.13h-1.46l-2.05-2.52
		l-1.98,2.52H175.83z"/>
	<path class="st1" d="M188.43-268.26v-8.68h1.23v1.2c0.5-0.89,1.26-1.34,2.27-1.34c0.82,0,1.46,0.28,1.93,0.84
		c0.47,0.56,0.7,1.32,0.7,2.29c0,1.05-0.27,1.91-0.8,2.55c-0.53,0.65-1.23,0.97-2.1,0.97c-0.81,0-1.48-0.29-2.01-0.87v3.04H188.43z
		 M189.66-272.1c0.63,0.53,1.24,0.8,1.82,0.8c0.57,0,1.01-0.22,1.31-0.66c0.31-0.44,0.46-1.07,0.46-1.87c0-1.49-0.53-2.24-1.58-2.24
		c-0.69,0-1.36,0.35-2.02,1.05V-272.1z"/>
	<path class="st1" d="M205.54-270.78c-0.83,0.23-1.53,0.35-2.12,0.35c-1.01,0-1.82-0.31-2.45-0.93c-0.63-0.62-0.95-1.43-0.95-2.42
		c0-0.96,0.28-1.75,0.84-2.37c0.56-0.62,1.27-0.92,2.14-0.92c0.82,0,1.46,0.27,1.91,0.82s0.67,1.33,0.67,2.33l-0.01,0.35h-4.29
		c0.18,1.51,0.97,2.26,2.37,2.26c0.51,0,1.14-0.13,1.89-0.39V-270.78z M201.33-274.44h3c0-1.18-0.47-1.78-1.42-1.78
		C201.96-276.22,201.44-275.62,201.33-274.44z"/>
	<path class="st1" d="M211.75-270.58v-6.36h1.23v1.2c0.49-0.89,1.2-1.34,2.13-1.34c0.13,0,0.26,0.01,0.39,0.03v1.08
		c-0.21-0.07-0.4-0.1-0.56-0.1c-0.78,0-1.43,0.43-1.96,1.3v4.19H211.75z"/>
	<path class="st1" d="M221.05-278.1v-1.15h1.23v1.15H221.05z M221.05-270.58v-6.36h1.23v6.36H221.05z"/>
	<path class="st1" d="M233.8-270.78c-0.83,0.23-1.53,0.35-2.12,0.35c-1.01,0-1.82-0.31-2.45-0.93c-0.63-0.62-0.95-1.43-0.95-2.42
		c0-0.96,0.28-1.75,0.84-2.37c0.56-0.62,1.27-0.92,2.14-0.92c0.82,0,1.46,0.27,1.91,0.82s0.67,1.33,0.67,2.33l-0.01,0.35h-4.29
		c0.18,1.51,0.97,2.26,2.37,2.26c0.51,0,1.14-0.13,1.89-0.39V-270.78z M229.59-274.44h3c0-1.18-0.47-1.78-1.42-1.78
		C230.23-276.22,229.7-275.62,229.59-274.44z"/>
	<path class="st1" d="M240.01-270.58v-6.36h1.23v1.2c0.65-0.89,1.45-1.34,2.39-1.34c0.59,0,1.06,0.17,1.41,0.52
		c0.35,0.35,0.52,0.82,0.52,1.41v4.57h-1.23v-4.2c0-0.47-0.07-0.81-0.22-1.01c-0.15-0.2-0.39-0.3-0.74-0.3
		c-0.75,0-1.47,0.46-2.13,1.39v4.12H240.01z"/>
	<path class="st1" d="M256.75-270.77c-0.8,0.23-1.49,0.34-2.07,0.34c-0.92,0-1.68-0.32-2.29-0.96c-0.61-0.64-0.91-1.44-0.91-2.41
		c0-1.04,0.3-1.84,0.9-2.42s1.43-0.87,2.51-0.87c0.53,0,1.12,0.07,1.78,0.21v0.97c-0.7-0.19-1.26-0.29-1.7-0.29
		c-0.63,0-1.14,0.22-1.52,0.67s-0.57,1.03-0.57,1.77c0,0.71,0.2,1.29,0.59,1.73s0.9,0.66,1.54,0.66c0.56,0,1.14-0.13,1.74-0.4
		V-270.77z"/>
	<path class="st1" d="M267.63-270.78c-0.83,0.23-1.53,0.35-2.12,0.35c-1.01,0-1.82-0.31-2.45-0.93c-0.63-0.62-0.95-1.43-0.95-2.42
		c0-0.96,0.28-1.75,0.84-2.37c0.56-0.62,1.27-0.92,2.14-0.92c0.82,0,1.46,0.27,1.91,0.82s0.67,1.33,0.67,2.33l-0.01,0.35h-4.29
		c0.18,1.51,0.97,2.26,2.37,2.26c0.51,0,1.14-0.13,1.89-0.39V-270.78z M263.42-274.44h3c0-1.18-0.47-1.78-1.42-1.78
		C264.06-276.22,263.53-275.62,263.42-274.44z"/>
</g>
<g>
	<line class="st2" x1="356.46" y1="73.89" x2="356.46" y2="73.89"/>
</g>
<g>
	<path class="st1" d="M164.37,8.63l-16.97,92.49h-6.72v0.01H72.04L58.32,70.66l-8.98-0.04l-5.6,30.52H11.6l5.47-30.69l4.06-22.75
		h65.42c2.97,0,5.64-1.2,7.58-3.14c1.95-1.94,3.14-4.61,3.14-7.58c0-3.14-2.54-5.68-5.68-5.68H24.09l3.99-22.66h71.33
		c14.7,0,26.23,13.04,24.11,27.56c0,0,0,0,0,0.01c-0.01,0.34-0.03,0.69-0.05,1.03c-0.16,2.32-0.54,4.54-1.1,6.63
		c0,0.01,0,0.01,0,0.01c-2.74,15.28-17.13,26.53-32.68,26.93l2.42,6.36l27.4,0.11l12.24-68.64H164.37z"/>
</g>
<g>
	<path class="st3" d="M89.51,36.18"/>
</g>
<g>
	<polygon class="st0" points="365.57,101.13 162.48,101.18 152.57,101.16 156.62,77.21 220.53,36.17 164.39,35.89 169.18,8.62 
		273.52,8.62 268.41,36.41 194.9,77.21 325.35,77.21 314.69,39.72 296.27,66.8 260.84,66.8 300.88,8.62 334.85,8.62 356.46,73.89 	
		"/>
</g>
<g>
	<path class="st1" d="M7.42,120.42v-1.64c1.4,0.61,2.56,0.91,3.47,0.91c0.69,0,1.25-0.17,1.67-0.52c0.42-0.34,0.64-0.79,0.64-1.34
		c0-0.46-0.14-0.85-0.42-1.17c-0.28-0.32-0.79-0.68-1.54-1.07l-0.86-0.46c-1.06-0.57-1.81-1.1-2.24-1.6
		c-0.43-0.5-0.65-1.08-0.65-1.74c0-0.9,0.35-1.64,1.04-2.22c0.7-0.58,1.58-0.87,2.66-0.87c0.96,0,1.97,0.15,3.04,0.45v1.51
		c-1.31-0.48-2.29-0.72-2.94-0.72c-0.61,0-1.12,0.15-1.51,0.46c-0.4,0.3-0.6,0.69-0.6,1.15c0,0.39,0.15,0.73,0.44,1.03
		c0.29,0.3,0.82,0.66,1.6,1.07l0.89,0.47c1.08,0.57,1.83,1.11,2.25,1.62c0.43,0.51,0.64,1.12,0.64,1.83c0,1.01-0.4,1.83-1.19,2.44
		c-0.8,0.61-1.85,0.92-3.17,0.92C9.79,120.93,8.72,120.76,7.42,120.42z"/>
	<path class="st1" d="M27.04,120.64c-0.51,0.13-0.95,0.2-1.33,0.2c-0.84,0-1.5-0.23-1.97-0.68s-0.71-1.08-0.71-1.88v-5.02h-1.14
		v-1.17h1.14v-1.55l1.66-0.15v1.7h2.39v1.17h-2.39v4.74c0,1.12,0.52,1.68,1.55,1.68c0.22,0,0.48-0.03,0.8-0.1V120.64z"/>
	<path class="st1" d="M35.38,123.75l1.49-3.11l-3.53-8.55h1.8l2.61,6.44l2.79-6.44h1.57l-4.99,11.66H35.38z"/>
	<path class="st1" d="M49.31,120.64V108.2h1.66v12.43H49.31z"/>
	<path class="st1" d="M66.44,120.36c-1.11,0.31-2.06,0.47-2.85,0.47c-1.35,0-2.45-0.42-3.3-1.25c-0.85-0.84-1.27-1.92-1.27-3.25
		c0-1.3,0.37-2.36,1.12-3.19c0.75-0.83,1.71-1.24,2.87-1.24c1.1,0,1.96,0.37,2.56,1.11c0.6,0.74,0.9,1.78,0.9,3.14l-0.01,0.47h-5.76
		c0.24,2.03,1.3,3.04,3.19,3.04c0.69,0,1.54-0.18,2.54-0.53V120.36z M60.79,115.45h4.03c0-1.59-0.63-2.39-1.9-2.39
		C61.64,113.06,60.93,113.86,60.79,115.45z"/>
	<path class="st1" d="M81.3,120.64l-2.62-8.55h1.62l2,6.62l2.17-6.62h1.66l1.89,6.6l2.29-6.6h1.42l-2.98,8.55h-1.66l-1.94-6.62
		l-2.19,6.62H81.3z"/>
	<path class="st1" d="M98.97,110.53v-1.55h1.66v1.55H98.97z M98.97,120.64v-8.55h1.66v8.55H98.97z"/>
	<path class="st1" d="M113.47,120.64c-0.51,0.13-0.95,0.2-1.33,0.2c-0.84,0-1.5-0.23-1.97-0.68s-0.71-1.08-0.71-1.88v-5.02h-1.14
		v-1.17h1.14v-1.55l1.66-0.15v1.7h2.39v1.17h-2.39v4.74c0,1.12,0.52,1.68,1.55,1.68c0.22,0,0.49-0.03,0.8-0.1V120.64z"/>
	<path class="st1" d="M121.29,120.64V108.2h1.66v5.49c0.88-1.2,1.95-1.8,3.21-1.8c0.8,0,1.43,0.23,1.9,0.7
		c0.47,0.47,0.7,1.1,0.7,1.89v6.14h-1.66V115c0-0.64-0.1-1.09-0.3-1.36c-0.2-0.27-0.53-0.41-0.99-0.41c-1.01,0-1.97,0.62-2.87,1.87
		v5.54H121.29z"/>
	<path class="st1" d="M153.05,119.55c-0.99,0.86-1.95,1.28-2.87,1.28c-0.76,0-1.39-0.22-1.88-0.67c-0.5-0.44-0.75-1-0.75-1.68
		c0-0.93,0.42-1.65,1.26-2.15c0.84-0.5,2.04-0.75,3.61-0.75h0.39v-1.03c0-0.99-0.55-1.49-1.66-1.49c-0.86,0-1.8,0.25-2.81,0.76
		v-1.28c1.12-0.43,2.17-0.64,3.15-0.64c1.02,0,1.76,0.22,2.25,0.65c0.48,0.43,0.72,1.1,0.72,2v3.87c0,0.89,0.29,1.33,0.88,1.33
		c0.07,0,0.18-0.01,0.32-0.03l0.12,0.86c-0.38,0.17-0.79,0.25-1.25,0.25C153.75,120.83,153.26,120.4,153.05,119.55z M152.8,118.71
		v-2.21l-0.53-0.02c-0.92,0-1.66,0.16-2.23,0.48c-0.56,0.32-0.85,0.75-0.85,1.28c0,0.37,0.14,0.69,0.42,0.94
		c0.28,0.26,0.62,0.39,1.03,0.39C151.34,119.56,152.06,119.28,152.8,118.71z"/>
	<path class="st1" d="M168.75,120.64v-8.55h1.66v1.61c0.88-1.2,1.95-1.8,3.21-1.8c0.8,0,1.43,0.23,1.9,0.7
		c0.47,0.47,0.7,1.1,0.7,1.89v6.14h-1.66V115c0-0.64-0.1-1.09-0.3-1.36c-0.2-0.27-0.53-0.41-0.99-0.41c-1.01,0-1.97,0.62-2.87,1.87
		v5.54H168.75z"/>
	<path class="st1" d="M191.59,120.36c-1.11,0.31-2.06,0.47-2.85,0.47c-1.35,0-2.45-0.42-3.3-1.25c-0.85-0.84-1.27-1.92-1.27-3.25
		c0-1.3,0.38-2.36,1.12-3.19c0.75-0.83,1.71-1.24,2.87-1.24c1.1,0,1.96,0.37,2.56,1.11c0.6,0.74,0.9,1.78,0.9,3.14l-0.01,0.47h-5.76
		c0.24,2.03,1.3,3.04,3.19,3.04c0.69,0,1.54-0.18,2.54-0.53V120.36z M185.94,115.45h4.03c0-1.59-0.63-2.39-1.9-2.39
		C186.79,113.06,186.08,113.86,185.94,115.45z"/>
	<path class="st1" d="M201,120.64l-2.62-8.55H200l2,6.62l2.17-6.62h1.66l1.89,6.6l2.29-6.6h1.42l-2.98,8.55h-1.66l-1.94-6.62
		l-2.19,6.62H201z"/>
	<path class="st1" d="M236.26,120.36c-1.11,0.31-2.06,0.47-2.85,0.47c-1.35,0-2.45-0.42-3.3-1.25c-0.85-0.84-1.27-1.92-1.27-3.25
		c0-1.3,0.38-2.36,1.12-3.19c0.75-0.83,1.71-1.24,2.87-1.24c1.1,0,1.96,0.37,2.56,1.11c0.6,0.74,0.9,1.78,0.9,3.14l-0.01,0.47h-5.76
		c0.24,2.03,1.3,3.04,3.19,3.04c0.69,0,1.54-0.18,2.54-0.53V120.36z M230.61,115.45h4.03c0-1.59-0.63-2.39-1.9-2.39
		C231.47,113.06,230.76,113.86,230.61,115.45z"/>
	<path class="st1" d="M243.7,120.64l3.48-4.41l-3.37-4.14h1.97l2.67,3.29l2.41-3.29h1.62l-3.16,4.34l3.43,4.21h-1.97l-2.75-3.39
		l-2.66,3.39H243.7z"/>
	<path class="st1" d="M260.63,123.75v-11.66h1.66v1.61c0.68-1.2,1.7-1.8,3.05-1.8c1.1,0,1.96,0.38,2.6,1.13
		c0.63,0.75,0.95,1.78,0.95,3.08c0,1.42-0.36,2.56-1.07,3.43c-0.72,0.87-1.66,1.3-2.82,1.3c-1.08,0-1.98-0.39-2.7-1.17v4.08H260.63z
		 M262.29,118.6c0.85,0.71,1.67,1.07,2.44,1.07c0.76,0,1.35-0.3,1.77-0.89c0.42-0.6,0.62-1.43,0.62-2.51c0-2-0.71-3-2.12-3
		c-0.93,0-1.83,0.47-2.71,1.41V118.6z"/>
	<path class="st1" d="M283.62,120.36c-1.11,0.31-2.06,0.47-2.85,0.47c-1.35,0-2.45-0.42-3.3-1.25c-0.85-0.84-1.27-1.92-1.27-3.25
		c0-1.3,0.38-2.36,1.12-3.19c0.75-0.83,1.71-1.24,2.87-1.24c1.1,0,1.96,0.37,2.56,1.11c0.6,0.74,0.9,1.78,0.9,3.14l-0.01,0.47h-5.76
		c0.24,2.03,1.3,3.04,3.19,3.04c0.69,0,1.54-0.18,2.54-0.53V120.36z M277.97,115.45H282c0-1.59-0.63-2.39-1.9-2.39
		C278.82,113.06,278.12,113.86,277.97,115.45z"/>
	<path class="st1" d="M291.98,120.64v-8.55h1.66v1.61c0.66-1.2,1.61-1.8,2.86-1.8c0.17,0,0.35,0.01,0.53,0.04v1.46
		c-0.29-0.09-0.54-0.13-0.76-0.13c-1.05,0-1.93,0.58-2.63,1.75v5.63H291.98z"/>
	<path class="st1" d="M304.48,110.53v-1.55h1.66v1.55H304.48z M304.48,120.64v-8.55h1.66v8.55H304.48z"/>
	<path class="st1" d="M321.6,120.36c-1.11,0.31-2.06,0.47-2.85,0.47c-1.35,0-2.45-0.42-3.3-1.25c-0.85-0.84-1.27-1.92-1.27-3.25
		c0-1.3,0.38-2.36,1.12-3.19c0.75-0.83,1.71-1.24,2.87-1.24c1.1,0,1.96,0.37,2.56,1.11c0.6,0.74,0.9,1.78,0.9,3.14l-0.01,0.47h-5.76
		c0.24,2.03,1.3,3.04,3.19,3.04c0.69,0,1.54-0.18,2.54-0.53V120.36z M315.95,115.45h4.03c0-1.59-0.63-2.39-1.9-2.39
		C316.8,113.06,316.1,113.86,315.95,115.45z"/>
	<path class="st1" d="M329.96,120.64v-8.55h1.66v1.61c0.88-1.2,1.95-1.8,3.21-1.8c0.8,0,1.43,0.23,1.9,0.7
		c0.47,0.47,0.7,1.1,0.7,1.89v6.14h-1.66V115c0-0.64-0.1-1.09-0.3-1.36c-0.2-0.27-0.53-0.41-0.99-0.41c-1.01,0-1.97,0.62-2.87,1.87
		v5.54H329.96z"/>
	<path class="st1" d="M352.44,120.38c-1.07,0.3-2,0.46-2.78,0.46c-1.23,0-2.26-0.43-3.07-1.28c-0.81-0.86-1.22-1.93-1.22-3.24
		c0-1.39,0.4-2.48,1.21-3.25s1.93-1.17,3.37-1.17c0.71,0,1.51,0.09,2.39,0.28v1.3c-0.94-0.26-1.7-0.39-2.28-0.39
		c-0.85,0-1.53,0.3-2.04,0.89c-0.51,0.6-0.76,1.39-0.76,2.38c0,0.96,0.26,1.74,0.79,2.33s1.22,0.89,2.07,0.89
		c0.76,0,1.53-0.18,2.33-0.54V120.38z"/>
	<path class="st1" d="M367.07,120.36c-1.11,0.31-2.06,0.47-2.85,0.47c-1.35,0-2.45-0.42-3.3-1.25c-0.85-0.84-1.27-1.92-1.27-3.25
		c0-1.3,0.38-2.36,1.12-3.19c0.75-0.83,1.71-1.24,2.87-1.24c1.1,0,1.96,0.37,2.56,1.11c0.6,0.74,0.9,1.78,0.9,3.14l-0.01,0.47h-5.76
		c0.24,2.03,1.3,3.04,3.19,3.04c0.69,0,1.54-0.18,2.54-0.53V120.36z M361.42,115.45h4.03c0-1.59-0.63-2.39-1.9-2.39
		C362.27,113.06,361.56,113.86,361.42,115.45z"/>
</g>
</svg>
